<svg id="Capa_1" data-name="Capa 1" xmlns="http://www.w3.org/2000/svg" viewBox="0 0 908.66 464.01"><defs><style>.cls-1{fill:#eb7077;stroke:#eb7077;}.cls-1,.cls-2{stroke-miterlimit:6.36;stroke-width:0.15px;}.cls-2{fill:#f6a2ad;stroke:#f6a2ad;}</style></defs><path class="cls-1" d="M1020.1,421.45c3.29-5.6,7.57-11,13.71-13.61a44.58,44.58,0,0,1,7.57-.21h124.16c-3.62,3.07-7.13,6.25-9.54,10.41-6.36,10.43-10.64,22-14.59,33.68-11.18,35.1-19,71.18-26.54,107.27q-5.11,24.53-9.76,49.14c-9.44,53.53-19.2,106.94-31.37,159.92-5.81,24.46-11.74,48.92-20.73,72.5-4.17,9.77-8.23,20.18-16.23,27.42-1.87,1.65-3.73,3.73-6.37,3.4H920.73c-7.46-.22-14.81.44-22.27-.33a43.43,43.43,0,0,0,12.18-13.93c8.22-15.68,13.38-32.68,18.31-49.57,7.68-27.2,13.82-54.74,19.64-82.27,3.62-18.09,7.89-36.08,10.53-54.29,3-20.29,7.46-40.36,11.08-60.55,5.7-29.72,11.73-59.44,18.42-88.95,5.38-23,10.86-46,18.21-68.45C1010.45,442.18,1014.4,431.43,1020.1,421.45Z" transform="translate(-795.78 -407.5)"/><path class="cls-2" d="M1165.55,407.63c3.18,0,6.35-.11,9.54,0a36.4,36.4,0,0,1,16.23,17,210.7,210.7,0,0,1,11.29,26.1c11,33.9,18.43,68.77,25.89,103.54q9.54,46.72,18.1,93.79c.44,1.64-.11,4,2.09,4.38C1240.79,693.68,1233,735,1223.13,776c-5.38,22-11.08,44-19.19,65.26-4.39,10.64-8.89,22.27-18.22,29.84-5.92,1.31-10.2-3.18-13.81-7.24-6.25-8-10.1-17.44-13.83-26.88-12.39-33.78-20-69-27.63-104.09-5.82-27.31-11-54.84-16.35-82.26-2.41-13.93-5.7-27.64-7.56-41.57-.34-.22-1.11-.66-1.43-.88q4.64-24.61,9.76-49.14c7.57-36.09,15.36-72.17,26.54-107.27,3.95-11.63,8.23-23.25,14.59-33.67,2.42-4.17,5.92-7.35,9.54-10.42Z" transform="translate(-795.78 -407.5)"/><path class="cls-1" d="M1302.76,426.6c4-7.56,8.77-16,17.33-18.86,43.55-.22,87.09-.11,130.64-.11-4.06,4.05-8.34,8.11-11.09,13.27-8.44,15.14-13.38,31.92-18.42,48.48-12.94,45.63-22,92.24-30.71,138.86-8,46-16.57,91.91-26.33,137.66-5,23-10.31,46-17,68.65-4.28,14.05-8.77,28.2-15.79,41.25-3.4,5.92-7.35,12.4-13.82,15.46-41.57.33-83.26,0-124.82.11a50.15,50.15,0,0,1-7-.33c9.33-7.56,13.83-19.19,18.22-29.83,8.11-21.28,13.81-43.21,19.19-65.26,9.87-40.92,17.66-82.26,25.56-123.51,9.54-53.19,19.52-106.39,32.24-158.93,5.92-22.71,11.63-45.74,21.83-66.91Z" transform="translate(-795.78 -407.5)"/><path class="cls-2" d="M1450.73,407.63c3.5,0,7.12-.11,10.63,0,5.71,3,9.77,8,13.39,13.16,5.92,9.43,9.65,20.07,13.49,30.49,9.1,28,15.9,56.71,22.15,85.44,8.34,38.72,15.58,77.66,22.71,116.6,1.75,9.32,3.51,18.75,4.6,28.19l1.65,1.65c-3.95,5.48-5.49,12.06-7.68,18.31-6.91,22.27-11.41,45.3-15.25,68.23a365.57,365.57,0,0,1-12.61,53.19c-4.16,12.84-9.21,25.56-17.54,36.31A39.15,39.15,0,0,1,1471,870.93c-9.11,1-14.48-7.78-18.87-14.25-9.1-15.91-14-33.68-19.3-51-17.33-64.16-28.63-129.86-40.81-195.13a2.85,2.85,0,0,0-1.53-2.3c8.66-46.62,17.77-93.23,30.71-138.86,5-16.56,10-33.34,18.43-48.48,2.74-5.16,7-9.22,11.08-13.27ZM795.79,657.16c2.86-.22,5.71-.66,8.67-.66H924c5,.66,10.31.22,15.13,2.42A43,43,0,0,1,957,672.63c.55-.33,1.54-1.21,2.09-1.65-2.64,18.21-6.91,36.19-10.53,54.29-5.82,27.53-12,55.07-19.64,82.27-4.93,16.89-10.09,33.89-18.31,49.57A43.53,43.53,0,0,1,898.46,871c-1.86.33-3.29-1-4.83-2-5.15-3.29-8.11-9-11.29-14.15-15-34.22-16.67-72.06-26-107.82-4.71-17.88-10.53-35.65-19.08-52.1-5.27-9.87-11.74-19.3-20.18-26.87a54.76,54.76,0,0,0-21.28-11Z" transform="translate(-795.78 -407.5)"/><path class="cls-1" d="M1549,668.57c6.91-7.79,17.22-12.73,27.64-12.29h89.95c12.5.22,25.11-.44,37.62.33-3.73,2.52-8.23,3.51-12.18,5.6a72.68,72.68,0,0,0-32.9,29.72c-12,20.84-16.13,44.75-19.64,68.22-3.51,23-3.4,46.84-10.86,69.22-5,15.68-12.72,31.47-26,41.78-41.24.44-82.49.11-123.62.22a38.64,38.64,0,0,1-8-.44,39,39,0,0,0,15.24-11.73c8.34-10.75,13.39-23.47,17.55-36.31a365.57,365.57,0,0,0,12.61-53.19c3.84-22.93,8.34-46,15.25-68.23,2.19-6.25,3.73-12.83,7.68-18.31C1542.64,678.33,1544.83,672.73,1549,668.57Z" transform="translate(-795.78 -407.5)"/></svg>