<?xml version="1.0" encoding="utf-8"?>
<!-- Generator: Adobe Illustrator 23.0.0, SVG Export Plug-In . SVG Version: 6.00 Build 0)  -->
<svg version="1.1"
	 id="svg8" inkscape:export-filename="C:\Users\Luis\Desktop\vago_icon.png" inkscape:export-xdpi="96" inkscape:export-ydpi="96" inkscape:version="1.0 (4035a4fb49, 2020-05-01)" sodipodi:docname="vago_icon.svg" xmlns:cc="http://creativecommons.org/ns#" xmlns:dc="http://purl.org/dc/elements/1.1/" xmlns:inkscape="http://www.inkscape.org/namespaces/inkscape" xmlns:rdf="http://www.w3.org/1999/02/22-rdf-syntax-ns#" xmlns:sodipodi="http://sodipodi.sourceforge.net/DTD/sodipodi-0.dtd" xmlns:svg="http://www.w3.org/2000/svg"
	 xmlns="http://www.w3.org/2000/svg" xmlns:xlink="http://www.w3.org/1999/xlink" x="0px" y="0px" viewBox="0 0 1000 570.2"
	 style="enable-background:new 0 0 1000 570.2;" xml:space="preserve">
<style type="text/css">
	.st0{fill:#35D400;}
	.st1{fill:#666666;}
	.st2{fill:#35D400;stroke:#FFFFFF;stroke-width:14.1085;stroke-linecap:round;}
	.st3{fill:#FFFFFF;}
</style>
<sodipodi:namedview  bordercolor="#666666" borderopacity="1.0" id="base" inkscape:current-layer="layer1" inkscape:cx="118.72946" inkscape:cy="809.26186" inkscape:document-rotation="0" inkscape:document-units="px" inkscape:pageopacity="0.0" inkscape:pageshadow="2" inkscape:window-height="1027" inkscape:window-maximized="1" inkscape:window-width="1920" inkscape:window-x="1432" inkscape:window-y="113" inkscape:zoom="0.49497475" pagecolor="#ffffff" showgrid="false" showguides="true" units="px">
	</sodipodi:namedview>
<g id="layer1" inkscape:groupmode="layer" inkscape:label="Layer 1">
	<path id="rect3995" inkscape:export-xdpi="118.08965" inkscape:export-ydpi="118.08965" class="st0" d="M609.9,70.8h199.5
		c12,0,21.7,8.5,21.7,19v5.5c0,10.5-9.7,19-21.7,19H609.9c-12,0-21.7-8.5-21.7-19v-5.5C588.1,79.3,597.8,70.8,609.9,70.8z"/>
	<path id="rect3999" inkscape:export-xdpi="118.08965" inkscape:export-ydpi="118.08965" class="st0" d="M673.1,371.6h139.8
		c13.1,0,23.7,9.7,23.7,21.7v4c0,12-10.6,21.7-23.7,21.7H673.1c-13.1,0-23.7-9.7-23.7-21.7v-4C649.4,381.3,660,371.6,673.1,371.6z"
		/>
	<path id="rect4005" inkscape:export-xdpi="118.08965" inkscape:export-ydpi="118.08965" class="st0" d="M532.4,453.5h282.1
		c12.2,0,22,7.7,22,17.1v4.8c0,9.4-9.9,17.1-22,17.1H532.4c-12.2,0-22-7.7-22-17.1v-4.8C510.3,461.2,520.2,453.5,532.4,453.5z"/>
	<path id="rect4013" inkscape:export-xdpi="118.08965" inkscape:export-ydpi="118.08965" class="st0" d="M543.7,70.3L543.7,70.3
		c13.1,0,23.8,10,23.8,22.3v0c0,12.3-10.6,22.3-23.8,22.3h0c-13.1,0-23.8-10-23.8-22.3v0C520,80.3,530.6,70.3,543.7,70.3z"/>
	<path id="rect4015" inkscape:export-xdpi="118.08965" inkscape:export-ydpi="118.08965" class="st0" d="M445.8,453.5h30.7
		c10.8,0,19.5,8.7,19.5,19.5v0c0,10.8-8.7,19.5-19.5,19.5h-30.7c-10.8,0-19.5-8.7-19.5-19.5v0C426.3,462.3,435.1,453.5,445.8,453.5z
		"/>
	
		<path id="path4747" inkscape:connector-curvature="0" inkscape:export-xdpi="118.08965" inkscape:export-ydpi="118.08965" sodipodi:nodetypes="czzzc" class="st0" d="
		M817.8,525.5c0,0-164.6-154.2-164.6-279.3c0-125.1,91-175.1,164.6-175.1c73.6,0,169.7,47.3,169.7,175.1
		C987.5,374,817.8,525.5,817.8,525.5L817.8,525.5z"/>
	<g id="text12" inkscape:export-xdpi="118.08965" inkscape:export-ydpi="118.08965">
		<path id="path18" class="st1" d="M148.1,344c-3,2.5-7.6,4.7-13.8,6.6c-6,1.8-12.5,2.8-19.7,2.8c-8.7,0-16.2-1.3-22.4-3.8
			c-6.2-2.5-10.5-6.1-12.8-10.7c-2.8-5.5-6-12.5-9.7-21c-3.7-8.7-7.6-18.3-11.7-28.6c-3.9-10.6-8-21.8-12.4-33.8
			c-4.4-12-8.6-23.9-12.8-35.9c-3.9-12.2-7.7-24-11.4-35.5c-3.4-11.7-6.4-22.5-9-32.4c3-2.8,7.1-5.4,12.4-7.9
			c5.5-2.5,11.4-3.8,17.6-3.8c7.6,0,13.7,1.7,18.3,5.2c4.8,3.2,8.5,9.1,11,17.6c6.9,23.9,13.8,46.9,20.7,69
			c6.9,22.1,14.3,44.8,22.1,68.3h2.1c6.9-22.3,14-46.9,21.4-73.8c7.4-26.9,14.3-53.6,20.7-80c3.7-1.8,7.6-3.3,11.7-4.5
			c4.1-1.1,8.9-1.7,14.1-1.7c7.6,0,14,1.7,19.3,5.2c5.5,3.4,8.3,9.1,8.3,16.9c0,4.8-1.3,12.1-3.8,21.7c-2.3,9.7-5.4,20.6-9.3,32.8
			c-3.9,12.2-8.3,25-13.1,38.3c-4.8,13.3-9.7,26-14.5,37.9c-4.6,12-9.1,22.5-13.5,31.7C154,333.6,150.6,340.1,148.1,344L148.1,344z"
			/>
		<path id="path20" class="st1" d="M350.2,304.3h-67.6c-2.5,8.3-4.9,16.4-7.2,24.5c-2.1,8-3.9,15.2-5.5,21.4c-3,0.9-6.1,1.7-9.3,2.4
			c-3.2,0.7-7.1,1-11.7,1c-10.1,0-17.8-1.7-23.1-5.2c-5.1-3.7-7.6-8.9-7.6-15.5c0-3.2,0.5-6.3,1.4-9.3s2-6.4,3.1-10.3
			c1.6-6.2,3.9-13.9,6.9-23.1c3-9.2,6.2-19.1,9.7-29.7c3.7-10.8,7.5-21.8,11.4-33.1c3.9-11.3,7.7-22,11.4-32.1
			c3.7-10.3,7-19.8,10-28.3s5.5-15.3,7.6-20.4c3.4-2.1,8.7-4,15.9-5.9c7.4-1.8,14.6-2.8,21.7-2.8c10.3,0,19.4,1.5,27.3,4.5
			c8,2.8,13.2,7.5,15.5,14.1c4.4,12.2,9.1,26.3,14.1,42.4c5.1,16.1,10.1,32.7,15.2,49.7c5.3,17,10.3,33.8,15.2,50.4
			c4.8,16.6,9.1,31.4,12.8,44.5c-2.5,3-6.3,5.4-11.4,7.2c-4.8,1.8-10.7,2.8-17.6,2.8c-9.9,0-16.9-1.7-21-5.2
			c-3.9-3.4-6.8-8.9-8.6-16.2L350.2,304.3z M316.7,186.4c-3.2,10.3-7.2,22.2-12.1,35.5c-4.6,13.1-9,26.6-13.1,40.4h49.3
			c-3.9-14.5-7.9-28.3-12.1-41.4c-3.9-13.3-7.2-24.8-10-34.5H316.7z"/>
		<path id="path22" class="st1" d="M629.1,318.5c0,6.7-1.3,11.6-3.8,14.8c-2.5,3.2-6.6,6.4-12.1,9.7c-3.2,1.8-7.1,3.6-11.7,5.2
			c-4.6,1.6-9.8,3-15.5,4.1c-5.5,1.1-11.4,2.1-17.6,2.8c-6,0.7-12,1-17.9,1c-16.6,0-32-2.1-46.2-6.2c-14-4.4-26.3-11-36.9-20
			c-10.6-9-18.9-20.4-24.8-34.2c-6-13.8-9-30.4-9-49.7c0-18.2,3-34.2,9-48c6.2-14,14.5-25.6,24.8-34.8c10.6-9.4,22.9-16.4,36.9-21
			c14.3-4.8,29.6-7.2,45.9-7.2c21.4,0,38.4,3.3,51.1,10c12.6,6.7,19,15.2,19,25.5c0,5.3-1.4,10-4.1,14.1c-2.8,3.9-6,7-9.7,9.3
			c-5.7-3.7-13-7.1-21.7-10.3c-8.5-3.2-18.6-4.8-30.4-4.8c-9.7,0-18.5,1.6-26.6,4.8c-7.8,3-14.6,7.4-20.4,13.1
			c-5.7,5.7-10.2,12.8-13.5,21c-3.2,8.3-4.8,17.6-4.8,27.9c0,11.3,1.5,21.2,4.5,29.7c3.2,8.3,7.6,15.2,13.1,20.7
			c5.5,5.5,12.1,9.7,19.7,12.4c7.8,2.8,16.2,4.1,25.2,4.1c5.5,0,10.5-0.6,14.8-1.7c4.6-1.1,8.2-2.3,10.7-3.4v-39h-39.7
			c-1.4-2.3-2.6-5.3-3.8-9c-1.1-3.7-1.7-7.6-1.7-11.7c0-7.4,1.7-12.8,5.2-16.2c3.4-3.4,7.9-5.2,13.5-5.2h58c6.4,0,11.5,1.8,15.2,5.5
			c3.7,3.4,5.5,8.4,5.5,14.8V318.5z"/>
	</g>
	
		<circle id="path14" inkscape:export-xdpi="118.08965" inkscape:export-ydpi="118.08965" class="st2" cx="821.9" cy="246.3" r="83.8">
	</circle>
	<path id="rect861" inkscape:export-xdpi="118.08965" inkscape:export-ydpi="118.08965" class="st0" d="M604.5,372.9L604.5,372.9
		c13.6,0,24.7,10.3,24.7,23.1v0c0,12.8-11,23.1-24.7,23.1l0,0c-13.6,0-24.7-10.3-24.7-23.1v0C579.8,383.2,590.9,372.9,604.5,372.9z"
		/>
	<path id="rect4011" inkscape:export-xdpi="118.08965" inkscape:export-ydpi="118.08965" class="st3" d="M729.6,418.9h23.1
		c9.6,0,17.5,7.7,17.5,17.2v0.3c0,9.5-7.8,17.2-17.5,17.2h-23.1c-9.6,0-17.5-7.7-17.5-17.2V436C712.1,426.6,720,418.9,729.6,418.9z"
		/>
</g>
</svg>
